{"asset":{"generator":"Khronos glTF Spline I/O v0.0.1","version":"2.0"},"scenes":[{"nodes":[0]}],"nodes":[{"name":"library_icon_planet_ring","children":[1,2,3,4,5,6,7]},{"name":"Torus copy","matrix":[0.6341872744025003,0.7690801856389081,-0.07951206854024762,0,-0.40289407438485136,0.24094250528171757,-0.8829626685053863,0,-0.13948955317982378,0.12513443822199904,0.09779543636101484,0,-8.852845587695683,17.185016430247913,7.51235846909789,1],"mesh":0},{"name":"Empty Object","matrix":[0.8565088970175885,0,0,0,0,-0.8946705194736594,0,0,0,0,0.8538461538461538,0,-12.401516502252884,19.652815940224343,70.86078320315207,1]},{"name":"Point Light 2","translation":[-241.59432037168676,-202.37249892522408,94.35960311327109],"extensions":{"KHR_lights_punctual":{"light":0}}},{"name":"Point Light","translation":[210.50315425618285,225.66893817380452,-24.396376252567336],"extensions":{"KHR_lights_punctual":{"light":1}}},{"name":"Default Camera","camera":0,"translation":[-219.692565429542,-352.22131973604723,952.8991859001104],"rotation":[0.2801941191225996,0.005872886806125661,-0.0017142488125746276,0.9599238647729733],"children":[8]},{"name":"Torus","matrix":[0.9669148905010654,0.2526428926787893,0.03531519936518896,0,-0.11872222026065365,0.568196726131057,-0.8142834364214528,0,-0.04772640711190659,0.16553931132464408,0.12246973878813709,0,-9.37783606592285,15.99623926714058,6.583301823668251,1],"mesh":1},{"name":"Sphere","matrix":[1.2714846583771433,0,0,0,0,1.2638186191798644,0,0,0,0,1.2566377762193623,0,-9.377836065923816,17.185016430248155,11.291084801173113,1],"mesh":2},{"name":"Default Directional Light","translation":[850000,1300000,1000000],"rotation":[-0.45895513091666534,0.1367267597249462,-0.25064115022945466,0.8413352451859125],"extensions":{"KHR_lights_punctual":{"light":2}}}],"cameras":[{"type":"orthographic","orthographic":{"xmag":1680,"ymag":1027,"zfar":100000,"znear":-50000}}],"meshes":[{"primitives":[{"attributes":{"POSITION":1,"NORMAL":2,"TEXCOORD_0":3},"indices":0}]},{"primitives":[{"attributes":{"POSITION":5,"NORMAL":6,"TEXCOORD_0":7},"indices":4}]},{"primitives":[{"attributes":{"POSITION":9,"NORMAL":10,"TEXCOORD_0":11},"indices":8}]}],"buffers":[{"uri":"data:application/octet-stream;base64,","byteLength":412936},{"uri":"data:application/octet-stream;base64,","byteLength":412936},{"uri":"data:application/octet-stream;base64,","byteLength":183584}],"bufferViews":[{"buffer":0,"byteOffset":0,"byteLength":111336,"target":34963},{"buffer":0,"byteOffset":111336,"byteLength":113100,"target":34962},{"buffer":0,"byteOffset":224436,"byteLength":113100,"target":34962},{"buffer":0,"byteOffset":337536,"byteLength":75400,"target":34962},{"buffer":1,"byteOffset":0,"byteLength":111336,"target":34963},{"buffer":1,"byteOffset":111336,"byteLength":113100,"target":34962},{"buffer":1,"byteOffset":224436,"byteLength":113100,"target":34962},{"buffer":1,"byteOffset":337536,"byteLength":75400,"target":34962},{"buffer":2,"byteOffset":0,"byteLength":48384,"target":34963},{"buffer":2,"byteOffset":48384,"byteLength":50700,"target":34962},{"buffer":2,"byteOffset":99084,"byteLength":50700,"target":34962},{"buffer":2,"byteOffset":149784,"byteLength":33800,"target":34962}],"accessors":[{"bufferView":0,"byteOffset":0,"componentType":5123,"count":55668,"type":"SCALAR","min":[0],"max":[9424]},{"bufferView":1,"byteOffset":0,"componentType":5126,"count":9425,"type":"VEC3","min":[-131.5,-131.5,-9.500499725341797],"max":[131.5,131.5,9.500499725341797]},{"bufferView":2,"byteOffset":0,"componentType":5126,"count":9425,"type":"VEC3","min":[-1,-1,-1],"max":[1,1,1]},{"bufferView":3,"byteOffset":0,"componentType":5126,"count":9425,"type":"VEC2","min":[0,0],"max":[1,1]},{"bufferView":4,"byteOffset":0,"componentType":5123,"count":55668,"type":"SCALAR","min":[0],"max":[9424]},{"bufferView":5,"byteOffset":0,"componentType":5126,"count":9425,"type":"VEC3","min":[-92,-92,-9.500499725341797],"max":[92,92,9.500499725341797]},{"bufferView":6,"byteOffset":0,"componentType":5126,"count":9425,"type":"VEC3","min":[-1,-1,-1],"max":[1,1,1]},{"bufferView":7,"byteOffset":0,"componentType":5126,"count":9425,"type":"VEC2","min":[0,0],"max":[1,1]},{"bufferView":8,"byteOffset":0,"componentType":5123,"count":24192,"type":"SCALAR","min":[0],"max":[4224]},{"bufferView":9,"byteOffset":0,"componentType":5126,"count":4225,"type":"VEC3","min":[-41,-41,-41],"max":[41,41,41]},{"bufferView":10,"byteOffset":0,"componentType":5126,"count":4225,"type":"VEC3","min":[-1,-1,-1],"max":[1,1,1]},{"bufferView":11,"byteOffset":0,"componentType":5126,"count":4225,"type":"VEC2","min":[-0.0078125,0],"max":[1.0078125,1]}],"extensions":{"KHR_lights_punctual":{"lights":[{"type":"point","name":"Point Light 2","color":[1,0.3058823529411765,0],"intensity":2.3,"range":10000},{"type":"point","name":"Point Light","color":[0,0.3254901960784314,1],"intensity":2,"range":10000},{"type":"directional","name":"Default Directional Light","color":[1,1,1],"intensity":0.75}]}},"extensionsUsed":["KHR_lights_punctual"]}