{"asset":{"generator":"Khronos glTF Spline I/O v0.0.1","version":"2.0"},"scenes":[{"nodes":[0]}],"nodes":[{"name":"library_icon_planet_ring","children":[1,2,3,4]},{"name":"Empty Object","matrix":[1,0,0,0,0,1,0,0,0,0,1,0,0.7606287032181456,-4.23037231056135,67.81485958966567,1],"children":[5,6]},{"name":"Point Light 2","translation":[-241.59432037168676,-202.37249892522408,94.35960311327109],"extensions":{"KHR_lights_punctual":{"light":0}}},{"name":"Point Light","translation":[210.50315425618285,225.66893817380452,-24.396376252567336],"extensions":{"KHR_lights_punctual":{"light":1}}},{"name":"Default Camera","camera":0,"translation":[612.6900769430739,541.0337466913004,579.7260072185442],"rotation":[-0.2792563681997767,0.3952367513653027,0.12748518552464527,0.8657663187383876],"children":[7]},{"name":"Torus","matrix":[0.9612616959383183,0.2756373558169992,-2.220446049250312e-16,0,-0.07134019722713966,0.2487928342363851,-0.9659258262890679,0,-0.05627791512794276,0.1962644140864403,0.05470819390769065,0,1.0436096431476471e-14,-9.769962616701378e-15,2.842170943040401e-14,1],"mesh":0},{"name":"Sphere","matrix":[1.484496731796393,0,0,0,0,1.4704043550073422,0,0,0,0,1.4717379361127667,0,-0.760512780344598,4.230435181525957,1.048546145906542,1],"mesh":1},{"name":"Default Directional Light","translation":[850000,1300000,1000000],"rotation":[-0.45895513091666534,0.1367267597249462,-0.25064115022945466,0.8413352451859125],"extensions":{"KHR_lights_punctual":{"light":2}}}],"cameras":[{"type":"orthographic","orthographic":{"xmag":1680,"ymag":1027,"zfar":100000,"znear":-50000}}],"meshes":[{"primitives":[{"attributes":{"POSITION":1,"NORMAL":2,"TEXCOORD_0":3},"indices":0}]},{"primitives":[{"attributes":{"POSITION":5,"NORMAL":6,"TEXCOORD_0":7},"indices":4}]}],"buffers":[{"uri":"data:application/octet-stream;base64,","byteLength":412936},{"uri":"data:application/octet-stream;base64,","byteLength":183584}],"bufferViews":[{"buffer":0,"byteOffset":0,"byteLength":111336,"target":34963},{"buffer":0,"byteOffset":111336,"byteLength":113100,"target":34962},{"buffer":0,"byteOffset":224436,"byteLength":113100,"target":34962},{"buffer":0,"byteOffset":337536,"byteLength":75400,"target":34962},{"buffer":1,"byteOffset":0,"byteLength":48384,"target":34963},{"buffer":1,"byteOffset":48384,"byteLength":50700,"target":34962},{"buffer":1,"byteOffset":99084,"byteLength":50700,"target":34962},{"buffer":1,"byteOffset":149784,"byteLength":33800,"target":34962}],"accessors":[{"bufferView":0,"byteOffset":0,"componentType":5123,"count":55668,"type":"SCALAR","min":[0],"max":[9424]},{"bufferView":1,"byteOffset":0,"componentType":5126,"count":9425,"type":"VEC3","min":[-129,-129,-29.500499725341797],"max":[129,129,29.500499725341797]},{"bufferView":2,"byteOffset":0,"componentType":5126,"count":9425,"type":"VEC3","min":[-1,-1,-1],"max":[1,1,1]},{"bufferView":3,"byteOffset":0,"componentType":5126,"count":9425,"type":"VEC2","min":[0,0],"max":[1,1]},{"bufferView":4,"byteOffset":0,"componentType":5123,"count":24192,"type":"SCALAR","min":[0],"max":[4224]},{"bufferView":5,"byteOffset":0,"componentType":5126,"count":4225,"type":"VEC3","min":[-41,-41,-41],"max":[41,41,41]},{"bufferView":6,"byteOffset":0,"componentType":5126,"count":4225,"type":"VEC3","min":[-1,-1,-1],"max":[1,1,1]},{"bufferView":7,"byteOffset":0,"componentType":5126,"count":4225,"type":"VEC2","min":[-0.0078125,0],"max":[1.0078125,1]}],"extensions":{"KHR_lights_punctual":{"lights":[{"type":"point","name":"Point Light 2","color":[1,0.3058823529411765,0],"intensity":2.3,"range":10000},{"type":"point","name":"Point Light","color":[0,0.3254901960784314,1],"intensity":2,"range":10000},{"type":"directional","name":"Default Directional Light","color":[1,1,1],"intensity":0.75}]}},"extensionsUsed":["KHR_lights_punctual"]}